# xmcd
#
# Track frame offsets:
# 150
# 15815
# 31927
# 46077
# 60417
# 77595
# 95865
# 111440
# 126350
# 142415
# 157777
# 174750
# 191457
# 211205
#
# Disc length: 3036 seconds
#
#
# Revision: 2
# Processed by: cddbd v1.5.2PL0 Copyright (c) Steve Scherf et al.
# Submitted via: FreeRIP 2.951 
#
DISCID=ae0bda0e
DTITLE=Various Artist - Maximum Dance 98-06
DYEAR=1998
DGENRE=Pop
TTITLE0=Kosmonova Versus Fiocco - Celebrate
TTITLE1=Run Dmc Vs. Jason Nevins - (It's) Tricky
TTITLE2=Sash! - La Primavera
TTITLE3=Future Breeze - Another Day
TTITLE4=Down Low - Hit Me Right
TTITLE5=Pappa Bear Feat. Van Der Toorn - When The Rain Begins To Fall
TTITLE6=In-Mood Feat. Juliette - Ocean Of Light
TTITLE7=Ayla - Ayla-Part Ii
TTITLE8=Members Of Mayday - Save The Robots
TTITLE9=Dune Feat. Vanessa - Keep The Secret
TTITLE10=Carlos - The Silmarillia
TTITLE11=Era - Ameno
TTITLE12=Thomas D and Nina Hagen - Solo
TTITLE13=K-Ci and Jojo - All My Life
EXTD=
EXTT0=
EXTT1=
EXTT2=
EXTT3=
EXTT4=
EXTT5=
EXTT6=
EXTT7=
EXTT8=
EXTT9=
EXTT10=
EXTT11=
EXTT12=
EXTT13=
PLAYORDER=
